FILE "Wai Wai Trump Taisen (Japan).bin" BINARY
  TRACK 01 MODE2/2352
    INDEX 01 00:00:00
  TRACK 02 AUDIO
    INDEX 00 00:49:39
    INDEX 01 00:51:39
  TRACK 03 AUDIO
    INDEX 00 04:01:45
    INDEX 01 04:03:45
  TRACK 04 AUDIO
    INDEX 00 07:26:46
    INDEX 01 07:28:46
  TRACK 05 AUDIO
    INDEX 00 11:00:02
    INDEX 01 11:02:02
  TRACK 06 AUDIO
    INDEX 00 16:27:12
    INDEX 01 16:29:12
